<svg width="534" height="226" viewBox="0 0 534 226" fill="none" xmlns="http://www.w3.org/2000/svg">
<path d="M315.867 3.86664C314.267 5.99998 310.267 9.73331 306.8 12.1333C303.467 14.5333 296.8 20.2666 292 24.8C276.533 39.4666 269.733 42.2666 259.6 38C253.333 35.4666 250.667 35.4666 250.667 38.1333C250.667 41.4666 242.933 47.8666 237.867 48.8C235.333 49.2 232.933 49.3333 232.533 49.0666C232.267 48.6666 232.667 45.2 233.467 41.4666C234.667 35.7333 234.533 34.1333 232.933 32.2666C231.867 31.0666 230.8 29.2 230.533 28.2666C229.733 25.7333 222 31.7333 204.667 48.2666C196.667 55.8666 186.267 64.6666 181.867 67.7333C177.333 70.8 172.533 74.8 171.067 76.6666C169.733 78.5333 164.4 82.4 159.333 85.2C147.6 91.4666 145.867 94.9333 150.533 102.933L153.6 108.267L150.4 111.6L147.333 115.067L151.467 112.933C157.067 110.133 159.467 106.933 157.6 105.067C155.333 102.8 156.8 100.933 168.8 90L180 79.7333V84.5333C180 88.1333 178.933 90.2666 175.467 93.8666C171.333 97.8666 165.333 107.6 165.333 110.267C165.333 110.8 169.733 107.067 175.067 101.867C187.2 90 194.933 83.7333 210 73.7333C224.933 63.7333 243.867 52.8 244.667 53.6C245.067 53.8666 243.2 57.6 240.533 61.7333C237.867 66 236 70 236.267 70.8C236.533 71.6 238.533 69.3333 240.8 65.7333C243.467 61.6 246.667 58.2666 249.733 56.8C252.533 55.6 254.667 54.2666 254.667 53.8666C254.667 53.4666 254.133 53.6 253.333 54C252.667 54.4 252 54.1333 252 53.4666C252 52.6666 252.933 52 254 52C255.067 52 256.533 50.8 257.333 49.3333C259.867 44.5333 263.333 43.7333 274 45.4666L283.867 47.0666L288.667 42.8C291.867 40 294.8 38.6666 297.733 38.6666C300.133 38.6666 305.6 37.4666 309.867 36C324 30.9333 326.8 35.6 315.733 45.6C311.867 48.9333 309.067 52.1333 309.467 52.6666C310 53.0666 314.267 51.3333 318.933 48.6666C325.867 44.9333 333.333 42.6666 333.333 44.2666C333.333 44.5333 331.867 49.0666 330 54.4C328.133 59.8666 326.667 65.8666 326.667 67.7333C326.667 70.9333 327.6 70.2666 336.533 60.6666C342 54.8 346.933 50.5333 347.467 51.0666C348.133 51.7333 348.667 59.0666 348.667 67.4666C348.667 75.8666 349.067 82.6666 349.6 82.6666C350.133 82.6666 353.333 80.2666 356.8 77.2C366.667 68.6666 372.533 67.6 386.667 71.3333C401.733 75.3333 400.133 73.0666 380.933 63.0666C368.667 56.6666 360.933 49.3333 359.6 42.9333C358.667 38.8 345.067 26.6666 341.333 26.6666C338.267 26.6666 336.933 24.6666 336.4 19.4666C336.133 17.2 335.467 14.9333 334.8 14.2666C333.467 12.9333 328.933 14.9333 322.8 19.3333C320.267 21.2 318 22.5333 317.733 22.2666C317.467 22 318.533 18.4 320.133 14.2666C322.933 6.93331 322.8 -2.22772e-05 320 -2.22772e-05C319.333 -2.22772e-05 317.467 1.73331 315.867 3.86664Z" fill="white"/>
<path d="M120 126.933C113.734 128.533 108.267 133.067 107.334 137.467C106.134 142.533 112.534 149.333 122.934 154C135.734 159.733 138.667 162.133 138.667 167.2C138.667 170.133 137.6 172.533 135.2 174.8C130.534 179.2 118.8 179.333 111.6 174.933C105.2 171.2 105.067 171.2 105.6 175.6C106.134 180 109.2 180.933 123.334 181.2C138.134 181.333 149.334 174.533 149.334 165.333C149.334 159.6 145.734 156.4 132 149.6C125.2 146.133 118.934 142.4 118.267 141.2C116.267 138 118.267 132.667 122 130.933C126.8 128.667 138 128.933 142.667 131.333C146.534 133.333 146.667 133.333 146.667 130.267C146.667 127.733 145.734 126.8 142.534 126.133C136.667 125.067 125.6 125.333 120 126.933Z" fill="white"/>
<path d="M215.067 126.8C206.667 128.4 200.667 131.733 195.467 137.333C185.467 148.533 188.134 166.8 201.2 175.6C213.867 184.133 236.134 183.067 244.534 173.467C247.6 170 247.067 170 241.2 172.933C234.934 176.267 219.734 176.133 212.934 172.8C210.134 171.467 206.267 168.133 204.267 165.6C201.2 161.6 200.667 159.6 200.667 151.867C200.667 144.933 201.334 142 203.467 139.067C210.4 129.467 228.267 126.133 237.867 132.667L242.667 135.867V131.467C242.667 127.067 242.534 127.067 235.734 126.133C227.067 125.2 222.4 125.333 215.067 126.8Z" fill="white"/>
<path d="M30.9336 132.267C28.2669 140.667 14.0002 165.333 7.06689 173.2L1.06689 180H7.20023C11.3336 180 13.3336 179.467 13.3336 178.267C13.3336 177.333 15.4669 172.267 18.0002 166.933L22.5336 157.333H36.0002H49.4669L54.8002 168.667L60.0002 180H65.3336C68.2669 180 70.6669 179.733 70.6669 179.467C70.6669 179.067 68.8002 176.133 66.5336 172.8C62.2669 166.4 51.4669 143.867 47.3336 132.933C44.9336 126.667 44.9336 126.667 38.8002 126.667C32.6669 126.667 32.6669 126.8 30.9336 132.267ZM42.0002 142.667C44.5336 147.733 46.6669 152.533 46.6669 153.333C46.6669 154.133 42.4002 154.667 36.0002 154.667C30.1336 154.667 25.3336 154.267 25.3336 153.867C25.3336 152.667 36.1336 133.333 36.8002 133.333C37.0669 133.333 39.4669 137.467 42.0002 142.667Z" fill="white"/>
<path d="M289.467 130.933C290.134 133.333 290.667 143.467 290.667 153.333C290.667 163.2 290.134 173.333 289.467 175.733L288.134 180H309.467C321.467 180 330.667 179.467 330.667 178.8C330.667 178.133 331.067 176.667 331.467 175.467C332.134 173.6 331.867 173.6 327.467 175.333C324.534 176.533 318.4 177.333 311.334 177.333H300V166.267V155.067L311.467 153.733C327.334 151.733 327.867 149.867 312.534 150.4L299.867 150.933L300.267 140.4L300.667 130H310C315.2 130 320.934 130.4 323.067 131.067C326.134 131.867 326.667 131.6 326.667 129.333C326.667 126.8 325.867 126.667 307.467 126.667H288.134L289.467 130.933Z" fill="white"/>
<path d="M373.467 128.8C375.733 131.6 375.867 170.533 373.6 176.267C372.133 180 372.133 180 377.467 180C382.133 180 382.8 179.733 382 177.6C381.333 176.4 380.667 165.733 380.4 154L379.867 132.667L384.133 137.333C386.533 139.867 396.4 150.8 406.267 161.6C423.333 180.533 428.4 184.267 430 179.6C430.267 178.8 430.8 166.4 430.933 152.267L431.333 126.667H428H424.667L425.067 148.933L425.467 171.333L416.4 161.333C411.467 155.867 402.533 146 396.533 139.333L385.733 127.333L378.667 126.933C372.133 126.533 371.733 126.667 373.467 128.8Z" fill="white"/>
<path d="M473.467 129.067C472.267 131.333 472.8 131.467 483.2 130.933L494.267 130.4L495.2 144.8C495.6 152.8 495.467 164 494.933 169.6L493.867 180H500H506.267L505.2 173.6C503.867 165.867 503.733 147.067 504.8 137.6L505.733 130.667H515.2C521.6 130.667 525.733 130 527.467 128.667C529.733 126.933 526.933 126.8 502.4 126.667C477.067 126.667 474.667 126.8 473.467 129.067Z" fill="white"/>
<path d="M136.4 191.333C129.334 194.4 130.534 197.6 140.667 203.2C147.067 206.667 147.734 210.667 142.267 212.533C139.734 213.467 137.334 213.467 134.667 212.4C132.4 211.6 130.667 211.333 130.667 212C130.667 215.6 144.4 215.6 148 212C151.734 208.267 151.334 205.6 146.534 202.933C144.134 201.733 140.8 199.333 138.8 197.6C135.334 194.667 135.334 194.667 138 192.533C139.734 191.2 142.267 190.8 145.334 191.2C148.8 191.733 149.334 191.6 147.334 190.667C143.6 189.067 141.334 189.2 136.4 191.333Z" fill="white"/>
<path d="M209.333 190.667C203.6 192.133 200 196.4 200 202C200 208.267 201.067 210.533 205.467 212.667C212.8 216.533 224.8 214.133 228 208.133C228.667 206.667 229.333 203.467 229.333 200.933C229.333 192.8 220.267 188.133 209.333 190.667ZM222.533 195.467C228.133 202.667 224 213.333 215.467 213.333C209.733 213.333 205.6 210.133 204.533 204.8C203.733 200.267 205.6 195.067 208.533 193.067C209.333 192.533 212.267 192 214.933 192C218.667 192 220.533 192.8 222.533 195.467Z" fill="white"/>
<path d="M6 202.667C6 212.533 6.4 214.667 8 214.667C9.73333 214.667 10.1333 212.533 10.1333 202.667C10.1333 192.8 9.73333 190.667 8 190.667C6.4 190.667 6 192.8 6 202.667Z" fill="white"/>
<path d="M17.0671 192C20.9338 193.6 20.9338 199.2 17.0671 201.867L14.1338 204H17.0671C20.4005 204 25.3338 199.6 25.3338 196.8C25.3338 193.733 21.4671 190.667 17.6005 190.8C14.1338 190.8 14.1338 190.933 17.0671 192Z" fill="white"/>
<path d="M46.267 202.267C46.4003 211.733 46.9336 214.133 48.5336 214.4C50.267 214.8 50.667 213.6 50.667 208.8V202.667H58.0003H65.3336V208.667C65.3336 213.067 65.867 214.667 67.3336 214.667C68.9336 214.667 69.3336 212.4 69.3336 202.667C69.3336 192.933 68.9336 190.667 67.3336 190.667C65.867 190.667 65.3336 192.133 65.3336 196V201.333H58.0003H50.667V196C50.667 191.867 50.1336 190.667 48.4003 190.667C46.267 190.667 46.0003 192 46.267 202.267Z" fill="white"/>
<path d="M92.667 194.133C97.3336 201.333 98.667 204.667 98.667 209.6C98.667 213.2 99.2003 214.667 100.667 214.667C102.134 214.667 102.667 213.2 102.667 209.467C102.667 205.333 103.867 202.8 108 197.467C112.534 191.733 112.934 190.667 110.8 190.667C109.334 190.667 108 191.867 107.467 193.6C107.067 195.333 105.6 198.133 104.267 199.867L101.734 203.067L98.5336 197.2C96.8003 194 94.1336 191.2 92.8003 190.933C90.267 190.4 90.267 190.4 92.667 194.133Z" fill="white"/>
<path d="M173.333 202.667C173.333 212.4 173.733 214.667 175.333 214.667C176.933 214.667 177.333 212.4 177.333 202.667C177.333 192.933 176.933 190.667 175.333 190.667C173.733 190.667 173.333 192.933 173.333 202.667Z" fill="white"/>
<path d="M253.733 191.6L258.667 192.133V203.467C258.667 213.2 258.933 214.667 261.067 214.667C263.067 214.667 263.333 213.2 263.333 203.733V192.667L268.667 191.867C272 191.333 269.2 191.067 261.333 191.067C254.4 191.067 250.933 191.333 253.733 191.6Z" fill="white"/>
<path d="M294.667 202.667C294.667 212.4 295.067 214.667 296.667 214.667C298.134 214.667 298.667 213.067 298.667 208.667V202.667H306H313.334V208.667C313.334 212.933 313.867 214.667 315.2 214.667C316.667 214.667 317.2 212 317.6 202.667C318 192 317.734 190.667 315.734 190.667C313.867 190.667 313.334 191.867 313.334 196V201.333H305.867H298.4L298.934 196C299.334 191.6 298.934 190.667 297.067 190.667C294.934 190.667 294.667 192 294.667 202.667Z" fill="white"/>
<path d="M342 202.667V214.667H351.067C356 214.667 360 214.133 360 213.467C360 212.8 357.2 212.667 353.867 213.067C347.067 213.733 345.333 212.533 345.333 206.267C345.333 203.067 345.867 202.667 350.4 202.533C354.8 202.267 354.933 202.267 351.333 201.733C346 200.933 344.8 199.6 345.867 195.467C346.533 192.667 347.6 192.133 352.4 191.6C357.067 191.2 356.667 191.067 350 190.933L342 190.667V202.667Z" fill="white"/>
<path d="M382.667 202.667C382.667 212.4 383.067 214.667 384.667 214.667C386.134 214.667 386.667 213.067 386.667 208.667C386.667 205.333 387.2 202.667 387.734 202.667C388.267 202.667 391.467 205.333 394.667 208.667C402.667 216.8 405.734 216.4 398.8 208.133L393.467 201.733L396.8 200.133C399.467 198.933 400.134 197.867 399.734 194.933C399.334 191.733 398.8 191.333 394 191.067C389.867 190.933 389.467 191.067 392 191.867C398.267 193.6 396.4 201.333 389.734 201.333C386.667 201.333 386.4 200.933 386.934 196C387.334 191.6 386.934 190.667 385.067 190.667C382.934 190.667 382.667 192 382.667 202.667Z" fill="white"/>
<path d="M431.2 196.267C429.867 199.2 427.2 203.867 425.334 206.533C419.867 214 419.6 214.667 421.867 214.667C423.067 214.667 424.934 212.4 426.134 209.333C428.267 204.133 428.534 204 434.667 204C440.8 204 441.067 204.133 443.2 209.333C444.4 212.4 446.267 214.667 447.467 214.667C448.667 214.667 449.334 214.267 449.067 213.6C448.8 213.067 446.134 207.733 443.334 201.6C437.334 188.933 434.934 187.867 431.2 196.267ZM438.667 200.933C438.667 202 437.067 202.667 434.667 202.667C430 202.667 430 202.533 432.8 197.067L434.934 192.8L436.8 196.133C437.734 197.867 438.534 200.133 438.667 200.933Z" fill="white"/>
<path d="M470 202.667C470 213.067 470.267 214.667 472.267 214.667C474.133 214.667 474.533 212.8 474.933 202.667C475.333 191.467 475.2 190.667 472.667 190.667C470.133 190.667 470 191.6 470 202.667Z" fill="white"/>
<path d="M481.333 192.4C485.6 194.533 486.133 197.867 482.8 201.2C480.133 203.867 480.133 204 482.4 204C485.733 204 489.333 199.867 489.333 196.267C489.333 193.067 485.733 190.667 481.067 190.667H478L481.333 192.4Z" fill="white"/>
<path d="M513.334 196.933C516.134 201.333 517.334 204.8 517.334 208.933C517.334 213.867 517.734 214.667 520.134 214.667C521.734 214.667 522.4 214.133 522 213.2C520.267 210.533 522.8 202.933 527.467 196.8C530 193.333 531.334 190.667 530.4 190.667C529.467 190.667 526.934 193.6 524.8 197.067L521.067 203.333L517.867 196.933C515.6 192.667 513.734 190.667 512 190.667C509.6 190.667 509.734 191.2 513.334 196.933Z" fill="white"/>
</svg>
