<svg version="1.0" xmlns="http://www.w3.org/2000/svg"
 width="400.000000pt" height="169.000000pt" viewBox="0 0 400.000000 169.000000"
 preserveAspectRatio="xMidYMid meet">

<g transform="translate(0.000000,169.000000) scale(0.100000,-0.100000)"
fill="#000000" stroke="none">
<path d="M2369 1661 c-12 -16 -42 -44 -68 -62 -25 -18 -75 -61 -111 -95 -116
-110 -167 -131 -243 -99 -47 19 -67 19 -67 -1 0 -25 -58 -73 -96 -80 -19 -3
-37 -4 -40 -2 -2 3 1 29 7 57 9 43 8 55 -4 69 -8 9 -16 23 -18 30 -6 19 -64
-26 -194 -150 -60 -57 -138 -123 -171 -146 -34 -23 -70 -53 -81 -67 -10 -14
-50 -43 -88 -64 -88 -47 -101 -73 -66 -133 l23 -40 -24 -25 -23 -26 31 16 c42
21 60 45 46 59 -17 17 -6 31 84 113 l84 77 0 -36 c0 -27 -8 -43 -34 -70 -31
-30 -76 -103 -76 -123 0 -4 33 24 73 63 91 89 149 136 262 211 112 75 254 157
260 151 3 -2 -11 -30 -31 -61 -20 -32 -34 -62 -32 -68 2 -6 17 11 34 38 20 31
44 56 67 67 21 9 37 19 37 22 0 3 -4 2 -10 -1 -5 -3 -10 -1 -10 4 0 6 7 11 15
11 8 0 19 9 25 20 19 36 45 42 125 29 l74 -12 36 32 c24 21 46 31 68 31 18 0
59 9 91 20 106 38 127 3 44 -72 -29 -25 -50 -49 -47 -53 4 -3 36 10 71 30 52
28 108 45 108 33 0 -2 -11 -36 -25 -76 -14 -41 -25 -86 -25 -100 0 -24 7 -19
74 53 41 44 78 76 82 72 5 -5 9 -60 9 -123 0 -63 3 -114 7 -114 4 0 28 18 54
41 74 64 118 72 224 44 113 -30 101 -13 -43 62 -92 48 -150 103 -160 151 -7
31 -109 122 -137 122 -23 0 -33 15 -37 54 -2 17 -7 34 -12 39 -10 10 -44 -5
-90 -38 -19 -14 -36 -24 -38 -22 -2 2 6 29 18 60 21 55 20 107 -1 107 -5 0
-19 -13 -31 -29z"/>
<path d="M900 738 c-47 -12 -88 -46 -95 -79 -9 -38 39 -89 117 -124 96 -43
118 -61 118 -99 0 -22 -8 -40 -26 -57 -35 -33 -123 -34 -177 -1 -48 28 -49 28
-45 -5 4 -33 27 -40 133 -42 111 -1 195 50 195 119 0 43 -27 67 -130 118 -51
26 -98 54 -103 63 -15 24 0 64 28 77 36 17 120 15 155 -3 29 -15 30 -15 30 8
0 19 -7 26 -31 31 -44 8 -127 6 -169 -6z"/>
<path d="M1613 739 c-63 -12 -108 -37 -147 -79 -75 -84 -55 -221 43 -287 95
-64 262 -56 325 16 23 26 19 26 -25 4 -47 -25 -161 -24 -212 1 -21 10 -50 35
-65 54 -23 30 -27 45 -27 103 0 52 5 74 21 96 52 72 186 97 258 48 l36 -24 0
33 c0 33 -1 33 -52 40 -65 7 -100 6 -155 -5z"/>
<path d="M232 698 c-20 -63 -127 -248 -179 -307 l-45 -51 46 0 c31 0 46 4 46
13 0 7 16 45 35 85 l34 72 101 0 101 0 40 -85 39 -85 40 0 c22 0 40 2 40 4 0
3 -14 25 -31 50 -32 48 -113 217 -144 299 -18 47 -18 47 -64 47 -46 0 -46 -1
-59 -42z m83 -78 c19 -38 35 -74 35 -80 0 -6 -32 -10 -80 -10 -44 0 -80 3 -80
6 0 9 81 154 86 154 2 0 20 -31 39 -70z"/>
<path d="M2171 708 c5 -18 9 -94 9 -168 0 -74 -4 -150 -9 -168 l-10 -32 160 0
c90 0 159 4 159 9 0 5 3 16 6 25 5 14 3 14 -30 1 -22 -9 -68 -15 -121 -15
l-85 0 0 83 0 84 86 10 c119 15 123 29 8 25 l-95 -4 3 79 3 78 70 0 c39 0 82
-3 98 -8 23 -6 27 -4 27 13 0 19 -6 20 -144 20 l-145 0 10 -32z"/>
<path d="M2801 724 c17 -21 18 -313 1 -356 -11 -28 -11 -28 29 -28 35 0 40 2
34 18 -5 9 -10 89 -12 177 l-4 160 32 -35 c18 -19 92 -101 166 -182 128 -142
166 -170 178 -135 2 6 6 99 7 205 l3 192 -25 0 -25 0 3 -167 3 -168 -68 75
c-37 41 -104 115 -149 165 l-81 90 -53 3 c-49 3 -52 2 -39 -14z"/>
<path d="M3551 722 c-9 -17 -5 -18 73 -14 l83 4 7 -108 c3 -60 2 -144 -2 -186
l-8 -78 46 0 47 0 -8 48 c-10 58 -11 199 -3 270 l7 52 71 0 c48 0 79 5 92 15
17 13 -4 14 -188 15 -190 0 -208 -1 -217 -18z"/>
<path d="M1023 255 c-53 -23 -44 -47 32 -89 48 -26 53 -56 12 -70 -19 -7 -37
-7 -57 1 -17 6 -30 8 -30 3 0 -27 103 -27 130 0 28 28 25 48 -11 68 -18 9 -43
27 -58 40 -26 22 -26 22 -6 38 13 10 32 13 55 10 26 -4 30 -3 15 4 -28 12 -45
11 -82 -5z"/>
<path d="M1570 260 c-43 -11 -70 -43 -70 -85 0 -47 8 -64 41 -80 55 -29 145
-11 169 34 5 11 10 35 10 54 0 61 -68 96 -150 77z m99 -36 c42 -54 11 -134
-53 -134 -43 0 -74 24 -82 64 -6 34 8 73 30 88 6 4 28 8 48 8 28 0 42 -6 57
-26z"/>
<path d="M45 170 c0 -74 3 -90 15 -90 13 0 16 16 16 90 0 74 -3 90 -16 90 -12
0 -15 -16 -15 -90z"/>
<path d="M128 250 c29 -12 29 -54 0 -74 l-22 -16 22 0 c25 0 62 33 62 54 0 23
-29 46 -58 45 -26 0 -26 -1 -4 -9z"/>
<path d="M347 173 c1 -71 5 -89 17 -91 13 -3 16 6 16 42 l0 46 55 0 55 0 0
-45 c0 -33 4 -45 15 -45 12 0 15 17 15 90 0 73 -3 90 -15 90 -11 0 -15 -11
-15 -40 l0 -40 -55 0 -55 0 0 40 c0 31 -4 40 -17 40 -16 0 -18 -10 -16 -87z"/>
<path d="M695 234 c35 -54 45 -79 45 -116 0 -27 4 -38 15 -38 11 0 15 11 15
39 0 31 9 50 40 90 34 43 37 51 21 51 -11 0 -21 -9 -25 -22 -3 -13 -14 -34
-24 -47 l-19 -24 -24 44 c-13 24 -33 45 -43 47 -19 4 -19 4 -1 -24z"/>
<path d="M1300 170 c0 -73 3 -90 15 -90 12 0 15 17 15 90 0 73 -3 90 -15 90
-12 0 -15 -17 -15 -90z"/>
<path d="M1903 253 l37 -4 0 -85 c0 -73 2 -84 18 -84 15 0 17 11 17 82 l0 83
40 6 c25 4 4 6 -55 6 -52 0 -78 -2 -57 -4z"/>
<path d="M2210 170 c0 -73 3 -90 15 -90 11 0 15 12 15 45 l0 45 55 0 55 0 0
-45 c0 -32 4 -45 14 -45 11 0 15 20 18 90 3 80 1 90 -14 90 -14 0 -18 -9 -18
-40 l0 -40 -56 0 -56 0 4 40 c3 33 0 40 -14 40 -16 0 -18 -10 -18 -90z"/>
<path d="M2565 170 l0 -90 68 0 c37 0 67 4 67 9 0 5 -21 6 -46 3 -51 -5 -64 4
-64 51 0 24 4 27 38 28 33 2 34 2 7 6 -40 6 -49 16 -41 47 5 21 13 25 49 29
35 3 32 4 -18 5 l-60 2 0 -90z"/>
<path d="M2870 170 c0 -73 3 -90 15 -90 11 0 15 12 15 45 0 25 4 45 8 45 4 0
28 -20 52 -45 60 -61 83 -58 31 4 l-40 48 25 12 c20 9 25 17 22 39 -3 24 -7
27 -43 29 -31 1 -34 0 -15 -6 47 -13 33 -71 -17 -71 -23 0 -25 3 -21 40 3 33
0 40 -14 40 -16 0 -18 -10 -18 -90z"/>
<path d="M3234 218 c-10 -22 -30 -57 -44 -77 -41 -56 -43 -61 -26 -61 9 0 23
17 32 40 16 39 18 40 64 40 46 0 48 -1 64 -40 9 -23 23 -40 32 -40 9 0 14 3
12 8 -2 4 -22 44 -43 90 -45 95 -63 103 -91 40z m56 -35 c0 -8 -12 -13 -30
-13 -35 0 -35 1 -14 42 l16 32 14 -25 c7 -13 13 -30 14 -36z"/>
<path d="M3525 170 c0 -78 2 -90 17 -90 14 0 17 14 20 90 3 84 2 90 -17 90
-19 0 -20 -7 -20 -90z"/>
<path d="M3610 247 c32 -16 36 -41 11 -66 -20 -20 -20 -21 -3 -21 25 0 52 31
52 58 0 24 -27 42 -62 42 l-23 0 25 -13z"/>
<path d="M3850 213 c21 -33 30 -59 30 -90 0 -37 3 -43 21 -43 12 0 17 4 14 11
-13 20 6 77 41 123 19 26 29 46 22 46 -7 0 -26 -22 -42 -48 l-28 -47 -24 48
c-17 32 -31 47 -44 47 -18 0 -17 -4 10 -47z"/>
</g>
</svg>
